<svg viewBox="0 0 24 24"><path fill="#828282" d="M12 10.8c-1.087-2.114-4.046-6.054-6.798-7.995C2.566.944 1.561 1.266.902 1.565.139 1.908 0 3.08 0 3.768c0 .69.378 5.65.624 6.479.815 2.736 3.713 3.66 6.383 3.364.136-.02.275-.039.415-.056-.138.022-.276.041-.415.056-3.912.58-7.465 2.661-2.889 9.397 4.26 4.422 5.895-.825 7.092-3.317.237-.566.366-1.092.366-1.548 0 .466.132.995.378 1.574.794 1.957 2.706 6.993 7.102 3.317 4.572-6.712.998-8.815-2.913-9.397-.139-.015-.277-.034-.415-.056.14.017.279.036.415.056 2.67.297 5.568-.628 6.383-3.364.246-.828.624-5.789.624-6.478 0-.69-.139-1.861-.902-2.205-.659-.298-1.664-.62-4.3 2.395C16.046 4.746 13.087 8.686 12 10.8z"/></svg>
